<?xml version="1.0" standalone="no"?>
<!DOCTYPE svg PUBLIC "-//W3C//DTD SVG 20010904//EN"
 "http://www.w3.org/TR/2001/REC-SVG-20010904/DTD/svg10.dtd">
<svg version="1.0" xmlns="http://www.w3.org/2000/svg"
 width="684.000000pt" height="190.000000pt" viewBox="0 0 684.000000 190.000000"
 preserveAspectRatio="xMidYMid meet">

<g transform="translate(0.000000,190.000000) scale(0.100000,-0.100000)"
fill="#000000" stroke="none">
<path d="M1790 1140 l0 -100 -30 0 c-16 0 -30 5 -30 10 0 6 -23 10 -51 10 -49
0 -79 -15 -79 -39 0 -6 -7 -11 -15 -11 -10 0 -15 -11 -15 -35 0 -24 -5 -35
-15 -35 -11 0 -15 -11 -15 -40 0 -29 4 -40 15 -40 10 0 15 -11 15 -35 0 -24 5
-35 15 -35 8 0 15 -5 15 -11 0 -24 30 -39 79 -39 28 0 51 5 51 10 0 6 7 10 15
10 8 0 15 7 15 15 0 8 7 15 15 15 9 0 15 -9 15 -25 0 -16 6 -25 15 -25 13 0
15 34 15 250 0 216 -2 250 -15 250 -12 0 -15 -18 -15 -100z m-60 -140 c0 -5 7
-10 15 -10 8 0 15 -7 15 -15 0 -8 7 -15 15 -15 12 0 15 -13 15 -60 0 -47 -3
-60 -15 -60 -8 0 -15 -7 -15 -15 0 -8 -7 -15 -15 -15 -8 0 -15 -4 -15 -10 0
-5 -22 -10 -49 -10 -59 0 -61 4 -61 110 0 106 2 110 61 110 27 0 49 -4 49 -10z"/>
<path d="M670 965 c0 -218 1 -225 20 -225 19 0 20 7 20 185 0 117 4 185 10
185 6 0 10 -16 10 -35 0 -24 5 -35 15 -35 9 0 15 -9 15 -25 0 -14 5 -25 10
-25 6 0 10 -18 10 -40 0 -29 4 -40 15 -40 9 0 15 -9 15 -25 0 -14 5 -25 10
-25 6 0 10 -16 10 -35 0 -24 5 -35 15 -35 9 0 15 -9 15 -25 0 -21 5 -25 30
-25 28 0 30 3 30 35 0 24 5 35 15 35 9 0 15 9 15 25 0 14 5 25 10 25 6 0 10
18 10 40 0 29 4 40 15 40 9 0 15 9 15 25 0 14 5 25 10 25 6 0 10 11 10 25 0
15 6 25 14 25 10 0 16 13 19 38 2 20 4 -47 5 -150 l2 -188 25 0 25 0 0 225 0
225 -30 0 c-20 0 -30 -5 -30 -15 0 -8 -7 -15 -15 -15 -9 0 -15 -9 -15 -25 0
-14 -4 -25 -10 -25 -5 0 -10 -11 -10 -25 0 -16 -6 -25 -15 -25 -10 0 -15 -11
-15 -35 0 -19 -4 -35 -10 -35 -5 0 -10 -11 -10 -25 0 -16 -6 -25 -15 -25 -9 0
-15 -9 -15 -25 0 -14 -4 -25 -10 -25 -5 0 -10 -11 -10 -25 0 -15 -6 -25 -14
-25 -9 0 -16 17 -21 50 -5 33 -12 50 -21 50 -9 0 -14 12 -14 35 0 19 -4 35
-10 35 -5 0 -10 11 -10 25 0 16 -6 25 -15 25 -9 0 -15 9 -15 25 0 14 -4 25
-10 25 -5 0 -10 11 -10 25 0 16 -6 25 -15 25 -8 0 -15 7 -15 15 0 10 -10 15
-30 15 l-30 0 0 -225z"/>
<path d="M2440 965 l0 -225 100 0 c60 0 100 4 100 10 0 6 11 10 25 10 16 0 25
6 25 15 0 8 5 15 10 15 6 0 10 11 10 25 0 16 6 25 15 25 9 0 15 9 15 25 0 16
-6 25 -15 25 -9 0 -15 9 -15 21 0 26 -23 49 -49 49 -12 0 -21 6 -21 15 0 9 9
15 25 15 24 0 25 2 25 75 0 47 -4 75 -11 75 -14 0 -39 25 -39 39 0 7 -36 11
-100 11 l-100 0 0 -225z m170 160 c0 -8 7 -15 15 -15 11 0 15 -12 15 -50 0
-38 -4 -50 -15 -50 -8 0 -15 -4 -15 -10 0 -5 -25 -10 -55 -10 l-55 0 0 75 0
75 55 0 c42 0 55 -3 55 -15z m30 -200 c0 -8 5 -15 10 -15 16 0 12 -89 -4 -106
-10 -9 -37 -14 -80 -14 l-66 0 0 75 0 75 70 0 c56 0 70 -3 70 -15z"/>
<path d="M3310 965 c0 -218 1 -225 20 -225 19 0 20 7 20 185 0 117 4 185 10
185 6 0 10 -16 10 -35 0 -24 5 -35 15 -35 9 0 15 -9 15 -25 0 -14 5 -25 10
-25 6 0 10 -18 10 -40 0 -29 4 -40 15 -40 9 0 15 -9 15 -25 0 -14 5 -25 10
-25 6 0 10 -16 10 -35 0 -24 5 -35 15 -35 9 0 15 -9 15 -25 0 -21 5 -25 30
-25 28 0 30 3 30 35 0 24 5 35 15 35 9 0 15 9 15 25 0 14 5 25 10 25 6 0 10
18 10 40 0 29 4 40 15 40 9 0 15 9 15 25 0 14 5 25 10 25 6 0 10 11 10 25 0
15 6 25 14 25 10 0 16 13 19 38 2 20 4 -47 5 -150 l2 -188 25 0 25 0 0 225 0
225 -30 0 c-20 0 -30 -5 -30 -15 0 -8 -7 -15 -15 -15 -9 0 -15 -9 -15 -25 0
-14 -4 -25 -10 -25 -5 0 -10 -11 -10 -25 0 -16 -6 -25 -15 -25 -10 0 -15 -11
-15 -35 0 -19 -4 -35 -10 -35 -5 0 -10 -11 -10 -25 0 -16 -6 -25 -15 -25 -9 0
-15 -9 -15 -25 0 -14 -4 -25 -10 -25 -5 0 -10 -11 -10 -25 0 -15 -6 -25 -14
-25 -9 0 -16 17 -21 50 -5 33 -12 50 -21 50 -9 0 -14 12 -14 35 0 19 -4 35
-10 35 -5 0 -10 11 -10 25 0 16 -6 25 -15 25 -9 0 -15 9 -15 25 0 14 -4 25
-10 25 -5 0 -10 11 -10 25 0 16 -6 25 -15 25 -8 0 -15 7 -15 15 0 10 -10 15
-30 15 l-30 0 0 -225z"/>
<path d="M3880 1150 c0 -38 2 -40 30 -40 28 0 30 2 30 40 0 38 -2 40 -30 40
-28 0 -30 -2 -30 -40z"/>
<path d="M5510 1150 l0 -40 40 0 40 0 0 40 0 40 -40 0 -40 0 0 -40z"/>
<path d="M4070 1100 c0 -36 -2 -40 -25 -40 -20 0 -25 -5 -25 -25 0 -20 5 -25
25 -25 l25 0 0 -119 c0 -66 3 -126 6 -135 5 -12 21 -16 70 -16 62 0 64 1 64
25 0 22 -4 25 -36 25 -56 0 -64 15 -64 124 l0 96 50 0 c47 0 50 2 50 25 0 23
-3 25 -50 25 l-50 0 0 40 c0 33 -3 40 -20 40 -17 0 -20 -7 -20 -40z"/>
<path d="M1280 1050 c0 -5 -9 -10 -20 -10 -15 0 -20 -7 -20 -25 0 -18 5 -25
20 -25 11 0 20 5 20 10 0 6 27 10 60 10 33 0 60 -4 60 -10 0 -5 7 -10 15 -10
9 0 15 -9 15 -25 0 -24 -2 -25 -75 -25 -60 0 -75 -3 -75 -15 0 -8 -7 -15 -15
-15 -8 0 -17 -11 -21 -25 -3 -14 -12 -25 -20 -25 -8 0 -14 -10 -14 -25 0 -16
6 -25 15 -25 8 0 15 -9 15 -19 0 -45 9 -51 76 -51 36 0 64 4 64 10 0 6 11 10
25 10 14 0 25 -4 25 -10 0 -5 9 -10 20 -10 19 0 20 7 20 135 0 109 -3 135 -14
135 -8 0 -17 11 -20 25 -6 24 -10 25 -81 25 -43 0 -75 -4 -75 -10z m150 -185
c0 -16 -6 -25 -15 -25 -8 0 -15 -5 -15 -11 0 -23 -30 -39 -74 -39 -46 0 -46 0
-46 35 0 19 5 35 10 35 6 0 10 7 10 15 0 12 14 15 65 15 63 0 65 -1 65 -25z"/>
<path d="M2000 1050 c0 -5 -11 -10 -25 -10 -16 0 -25 -6 -25 -15 0 -8 -7 -15
-15 -15 -10 0 -15 -11 -15 -35 0 -19 -4 -35 -10 -35 -5 0 -10 -22 -10 -50 0
-27 5 -50 10 -50 6 0 10 -11 10 -25 0 -16 6 -25 15 -25 8 0 15 -7 15 -15 0 -9
9 -15 25 -15 14 0 25 -4 25 -10 0 -6 30 -10 70 -10 40 0 70 4 70 10 0 6 7 10
15 10 9 0 15 9 15 25 0 16 -6 25 -15 25 -8 0 -15 -4 -15 -10 0 -6 -29 -10 -66
-10 -76 0 -94 12 -94 64 l0 36 105 0 105 0 0 35 c0 19 -4 35 -10 35 -5 0 -10
11 -10 25 0 16 -6 25 -15 25 -8 0 -15 5 -15 11 0 25 -30 39 -84 39 -31 0 -56
-4 -56 -10z m90 -50 c0 -5 7 -10 15 -10 9 0 15 -9 15 -25 0 -24 -2 -25 -70
-25 -64 0 -70 2 -70 20 0 12 6 27 13 35 14 16 97 20 97 5z"/>
<path d="M2770 1025 c0 -24 5 -35 15 -35 11 0 15 -11 15 -40 0 -29 4 -40 15
-40 9 0 15 -9 15 -25 0 -14 5 -25 10 -25 6 0 10 -16 10 -35 0 -24 5 -35 15
-35 12 0 15 -14 15 -65 0 -51 -3 -65 -15 -65 -9 0 -15 -9 -15 -25 0 -20 5 -25
25 -25 16 0 25 6 25 15 0 8 6 15 14 15 10 0 16 20 21 75 5 54 11 75 21 75 8 0
14 10 14 25 0 14 5 25 10 25 6 0 10 16 10 35 0 24 5 35 15 35 11 0 15 11 15
40 0 22 5 40 10 40 6 0 10 11 10 25 0 16 6 25 15 25 8 0 15 5 15 10 0 6 -18
10 -40 10 -39 0 -40 -1 -40 -35 0 -19 -4 -35 -10 -35 -5 0 -10 -18 -10 -40 0
-28 -4 -40 -14 -40 -9 0 -16 -17 -21 -50 -9 -63 -35 -71 -35 -10 0 22 -4 40
-10 40 -5 0 -10 11 -10 25 0 16 -6 25 -15 25 -10 0 -15 11 -15 35 0 19 -4 35
-10 35 -5 0 -10 11 -10 25 0 21 -5 25 -30 25 -28 0 -30 -3 -30 -35z"/>
<path d="M3880 900 l0 -160 30 0 30 0 0 160 0 160 -30 0 -30 0 0 -160z"/>
<path d="M4350 1050 c0 -5 -11 -10 -25 -10 -16 0 -25 -6 -25 -15 0 -8 -6 -15
-14 -15 -9 0 -15 -18 -20 -55 -8 -74 3 -165 20 -165 8 0 14 -7 14 -15 0 -9 9
-15 25 -15 14 0 25 -4 25 -10 0 -5 25 -10 55 -10 30 0 55 5 55 10 0 6 11 10
25 10 16 0 25 6 25 15 0 8 7 15 15 15 10 0 15 11 15 35 0 19 5 35 10 35 6 0
10 18 10 40 0 22 -4 40 -10 40 -5 0 -10 16 -10 35 0 24 -5 35 -15 35 -8 0 -15
7 -15 15 0 9 -9 15 -25 15 -14 0 -25 5 -25 10 0 6 -25 10 -55 10 -30 0 -55 -4
-55 -10z m110 -50 c0 -5 7 -10 15 -10 12 0 15 -17 15 -90 0 -73 -3 -90 -15
-90 -8 0 -15 -4 -15 -10 0 -5 -25 -10 -55 -10 -30 0 -55 5 -55 10 0 6 -7 10
-15 10 -12 0 -15 17 -15 90 0 73 3 90 15 90 8 0 15 5 15 10 0 6 25 10 55 10
30 0 55 -4 55 -10z"/>
<path d="M4680 1050 c0 -5 -9 -10 -20 -10 -15 0 -20 -7 -20 -25 0 -18 5 -25
20 -25 11 0 20 5 20 10 0 6 27 10 60 10 33 0 60 -4 60 -10 0 -5 7 -10 15 -10
9 0 15 -9 15 -25 0 -24 -2 -25 -75 -25 -60 0 -75 -3 -75 -15 0 -8 -7 -15 -15
-15 -8 0 -17 -11 -21 -25 -3 -14 -12 -25 -20 -25 -8 0 -14 -10 -14 -25 0 -16
6 -25 15 -25 8 0 15 -9 15 -19 0 -45 9 -51 76 -51 36 0 64 4 64 10 0 6 11 10
25 10 14 0 25 -4 25 -10 0 -5 9 -10 20 -10 19 0 20 7 20 135 0 109 -3 135 -14
135 -8 0 -17 11 -20 25 -6 24 -10 25 -81 25 -43 0 -75 -4 -75 -10z m150 -185
c0 -16 -6 -25 -15 -25 -8 0 -15 -5 -15 -11 0 -23 -30 -39 -74 -39 -46 0 -46 0
-46 35 0 19 5 35 10 35 6 0 10 7 10 15 0 12 14 15 65 15 63 0 65 -1 65 -25z"/>
<path d="M4970 900 l0 -160 25 0 25 0 0 103 c0 115 6 147 26 147 8 0 14 5 14
10 0 6 23 10 50 10 l50 0 0 -35 c0 -19 5 -35 10 -35 6 0 10 -40 10 -100 0 -93
1 -100 20 -100 19 0 20 7 20 125 l0 125 25 0 c14 0 25 5 25 10 0 6 18 10 40
10 36 0 40 -2 40 -25 0 -14 5 -25 10 -25 6 0 10 -43 10 -110 0 -103 1 -110 20
-110 19 0 20 7 20 128 0 139 -5 172 -26 172 -8 0 -14 5 -14 10 0 6 -22 10 -50
10 -27 0 -50 -4 -50 -10 0 -5 -11 -10 -24 -10 -15 0 -26 -7 -29 -17 -4 -17 -5
-17 -6 0 0 9 -8 17 -16 17 -8 0 -15 5 -15 10 0 6 -27 10 -60 10 -33 0 -60 -4
-60 -10 0 -5 -6 -10 -14 -10 -8 0 -17 -8 -19 -17 -3 -11 -5 -7 -6 10 -1 22 -6
27 -26 27 l-25 0 0 -160z"/>
<path d="M5510 900 l0 -160 40 0 40 0 0 160 0 160 -40 0 -40 0 0 -160z"/>
<path d="M5730 1050 c0 -5 -7 -10 -15 -10 -8 0 -15 -7 -15 -15 0 -8 -4 -15
-10 -15 -15 0 -12 -97 3 -104 10 -5 10 -7 0 -12 -7 -3 -13 -12 -13 -20 0 -8
-7 -14 -15 -14 -9 0 -15 -9 -15 -25 0 -16 6 -25 15 -25 10 0 15 -11 15 -35 0
-24 -5 -35 -15 -35 -11 0 -15 -12 -15 -50 0 -47 2 -50 25 -50 16 0 25 -6 25
-15 0 -12 16 -15 85 -15 69 0 85 3 85 15 0 8 5 15 11 15 14 0 39 25 39 39 0 6
7 11 15 11 9 0 15 9 15 25 0 16 -6 25 -15 25 -9 0 -15 9 -15 25 0 20 -5 25
-25 25 -14 0 -25 5 -25 10 0 6 -30 10 -70 10 -56 0 -70 3 -70 15 0 8 -7 15
-15 15 -8 0 -15 5 -15 10 0 6 30 10 70 10 56 0 70 3 70 15 0 8 7 15 15 15 8 0
15 5 15 10 0 6 7 10 15 10 11 0 15 12 15 50 0 47 2 50 25 50 20 0 25 5 25 25
l0 25 -110 0 c-67 0 -110 -4 -110 -10z m96 -54 c16 -17 19 -56 4 -56 -5 0 -10
-7 -10 -15 0 -11 -12 -15 -45 -15 l-45 0 0 50 0 50 41 0 c22 0 47 -6 55 -14z
m44 -271 c0 -24 -5 -35 -15 -35 -8 0 -15 -7 -15 -15 0 -12 -13 -15 -55 -15
-42 0 -55 3 -55 15 0 8 -7 15 -15 15 -9 0 -15 9 -15 25 0 16 6 25 15 25 8 0
15 5 15 10 0 6 30 10 70 10 l70 0 0 -35z"/>
<path d="M6090 1050 c0 -5 -13 -10 -30 -10 -20 0 -30 -5 -30 -15 0 -8 -4 -15
-10 -15 -5 0 -10 -16 -10 -35 0 -24 -5 -35 -15 -35 -11 0 -15 -11 -15 -40 0
-29 4 -40 15 -40 10 0 15 -11 15 -35 0 -19 5 -35 10 -35 6 0 10 -7 10 -15 0
-10 10 -15 30 -15 17 0 30 -4 30 -10 0 -5 25 -10 55 -10 30 0 55 5 55 10 0 6
11 10 25 10 16 0 25 6 25 15 0 8 7 15 15 15 10 0 15 11 15 35 0 19 5 35 10 35
6 0 10 18 10 40 0 22 -4 40 -10 40 -5 0 -10 16 -10 35 0 24 -5 35 -15 35 -8 0
-15 7 -15 15 0 9 -9 15 -25 15 -14 0 -25 5 -25 10 0 6 -25 10 -55 10 -30 0
-55 -4 -55 -10z m116 -54 c10 -10 14 -39 14 -96 0 -57 -4 -86 -14 -96 -17 -16
-116 -20 -116 -4 0 6 -7 10 -15 10 -12 0 -15 17 -15 90 0 73 3 90 15 90 8 0
15 5 15 10 0 16 99 12 116 -4z"/>
</g>
</svg>
